<svg width="100" height="100" viewBox="0 0 100 100" fill="none" xmlns="http://www.w3.org/2000/svg">
<rect width="100" height="100" fill="white"/>
<circle cx="50" cy="50" r="33" fill="#2054F8"/>
<mask id="path-3-inside-1" fill="white">
<path d="M64.6057 60.489C62.6634 62.4467 60.3545 64.0026 57.8108 65.068C55.2671 66.1333 52.5385 66.6873 49.7808 66.6981C47.0231 66.7089 44.2902 66.1765 41.7382 65.1312C39.1863 64.0858 36.8652 62.5481 34.9075 60.6057L49.6983 45.6983L64.6057 60.489Z"/>
</mask>
<path d="M64.6057 60.489C62.6634 62.4467 60.3545 64.0026 57.8108 65.068C55.2671 66.1333 52.5385 66.6873 49.7808 66.6981C47.0231 66.7089 44.2902 66.1765 41.7382 65.1312C39.1863 64.0858 36.8652 62.5481 34.9075 60.6057L49.6983 45.6983L64.6057 60.489Z" stroke="white" stroke-width="4" mask="url(#path-3-inside-1)"/>
<mask id="path-4-inside-2" fill="white">
<path d="M64.6057 40.9075C62.6634 38.9498 60.3545 37.3939 57.8108 36.3285C55.2671 35.2632 52.5385 34.7093 49.7808 34.6984C47.0231 34.6876 44.2902 35.22 41.7382 36.2654C39.1863 37.3107 36.8652 38.8484 34.9075 40.7908L49.6983 55.6983L64.6057 40.9075Z"/>
</mask>
<path d="M64.6057 40.9075C62.6634 38.9498 60.3545 37.3939 57.8108 36.3285C55.2671 35.2632 52.5385 34.7093 49.7808 34.6984C47.0231 34.6876 44.2902 35.22 41.7382 36.2654C39.1863 37.3107 36.8652 38.8484 34.9075 40.7908L49.6983 55.6983L64.6057 40.9075Z" stroke="white" stroke-width="4" mask="url(#path-4-inside-2)"/>
<rect x="32" y="40" width="37" height="21" fill="#2054F8"/>
<rect x="36.0411" y="59.0025" width="3.9335" height="2" rx="1" transform="rotate(39.72 36.0411 59.0025)" fill="white"/>
<rect x="64.6512" y="60.55" width="4.3619" height="2" rx="1" transform="rotate(140.98 64.6512 60.55)" fill="white"/>
<rect x="35" y="49" width="29" height="2" rx="1" fill="white"/>
<rect x="63.0097" y="41.9027" width="4.24579" height="2" rx="1" transform="rotate(-144.442 63.0097 41.9027)" fill="white"/>
<rect x="34.9862" y="40.5824" width="4.34078" height="2" rx="1" transform="rotate(-37.9421 34.9862 40.5824)" fill="white"/>
</svg>
